<?xml version="1.0" encoding="UTF-8" standalone="no"?>
<!-- Created with Inkscape (http://www.inkscape.org/) -->

<svg
   width="400"
   height="400"
   viewBox="0 0 400 400"
   version="1.1"
   id="svg1"
   inkscape:version="1.3.2 (091e20ef0f, 2023-11-25)"
   sodipodi:docname="ytthumb.svg"
   xmlns:inkscape="http://www.inkscape.org/namespaces/inkscape"
   xmlns:sodipodi="http://sodipodi.sourceforge.net/DTD/sodipodi-0.dtd"
   xmlns="http://www.w3.org/2000/svg"
   xmlns:svg="http://www.w3.org/2000/svg">
  <sodipodi:namedview
     id="namedview1"
     pagecolor="#ffffff"
     bordercolor="#000000"
     borderopacity="0.25"
     inkscape:showpageshadow="2"
     inkscape:pageopacity="0.0"
     inkscape:pagecheckerboard="0"
     inkscape:deskcolor="#d1d1d1"
     inkscape:document-units="px"
     inkscape:zoom="1.23"
     inkscape:cx="200.4065"
     inkscape:cy="200"
     inkscape:window-width="1366"
     inkscape:window-height="696"
     inkscape:window-x="0"
     inkscape:window-y="0"
     inkscape:window-maximized="1"
     inkscape:current-layer="layer1" />
  <defs
     id="defs1" />
  <g
     inkscape:label="Layer 1"
     inkscape:groupmode="layer"
     id="layer1">
    <rect
       style="fill:#ff99a4;stroke-width:0;stroke-linecap:round;stroke-linejoin:round;stroke-dasharray:none;stroke:none;fill-opacity:1"
       id="rect1"
       width="400"
       height="400"
       x="0"
       y="0" />
    <g
       id="g2"
       transform="matrix(0.43046721,0,0,0.43046721,89.800395,89.800395)">
      <path
         d="M 501.299,132.766 C 495.411,110.736 478.065,93.389 456.035,87.502 416.103,76.801 255.998,76.801 255.998,76.801 c 0,0 -160.105,0 -200.038,10.701 C 33.935,93.389 16.584,110.736 10.696,132.766 0,172.694 0,256.002 0,256.002 c 0,0 0,83.308 10.696,123.232 5.888,22.03 23.239,39.381 45.264,45.268 39.933,10.697 200.038,10.697 200.038,10.697 0,0 160.105,0 200.037,-10.697 22.03,-5.887 39.376,-23.238 45.264,-45.268 C 512,339.31 512,256.002 512,256.002 c 0,0 0,-83.308 -10.701,-123.236 z"
         style="fill:#ed1f24;fill-rule:nonzero"
         id="path1" />
      <path
         d="M 204.796,332.803 337.814,256.002 204.796,179.201 Z"
         style="fill:#ffffff;fill-rule:nonzero"
         id="path2" />
    </g>
  </g>
</svg>
